<svg width="153" height="118" viewBox="0 0 153 118" fill="none" xmlns="http://www.w3.org/2000/svg">
<path d="M60.8112 13.4056C55.2375 18.9793 51.5293 25.716 49.6729 32.8427C64.151 29.0402 80.2432 32.8376 91.571 44.1654C102.789 55.3838 106.563 71.3103 102.827 85.6548C109.978 83.7766 116.735 80.0473 122.329 74.4529L152.5 44.2828L121.622 13.4056C104.83 -3.38694 77.6037 -3.38695 60.8112 13.4056ZM30.8772 105.094C47.6698 121.886 74.8959 121.886 91.6884 105.094C97.2626 99.5198 100.971 92.7823 102.827 85.6548C88.3489 89.4579 72.2568 85.6624 60.9286 74.3342C49.7097 63.1153 45.9362 47.1878 49.6729 32.8427C42.5222 34.7208 35.7649 38.4519 30.1701 44.0467L-6.85453e-06 74.2168L30.8772 105.094Z" fill="#0ACF83"/>
</svg>
